<svg viewBox="0 0 512 512" xmlns="http://www.w3.org/2000/svg" fill-rule="evenodd" clip-rule="evenodd" stroke-linejoin="round" stroke-miterlimit="2"><path d="M506.001 368.04v112.057h-280.06c-81.598 0-152.846-45.064-190.955-112.057a223.473 223.473 0 01-14.462-30.56C12.546 316.716 7.514 294.42 6 271.14v-30.295c.327-5.175.86-10.33 1.534-15.403a224.709 224.709 0 016.26-30.561C39.957 100.826 125.032 31.91 225.94 31.91c100.908 0 185.964 68.916 212.127 162.972H318.319c-19.658-30.663-53.676-50.935-92.378-50.935s-72.72 20.272-92.379 50.935c-5.993 9.328-10.657 19.597-13.684 30.56-2.721 9.717-4.153 19.966-4.153 30.562 0 32.115 13.276 61.06 34.59 81.475 19.74 18.963 46.354 30.561 75.626 30.561H506z" fill="#fd366e" fill-rule="nonzero"/><path d="M506.001 225.443v112.036H301.566c21.315-20.415 34.59-49.36 34.59-81.475 0-10.596-1.431-20.845-4.152-30.561h173.997z" fill="#fd366e" fill-rule="nonzero"/></svg>